<?xml version="1.0" encoding="UTF-8"?>
<svg id="Layer_2" data-name="Layer 2" xmlns="http://www.w3.org/2000/svg" viewBox="0 0 701.5 226.06">
  <defs>
    <style>
      .cls-1 {
        fill: #231f20;
      }

      .cls-1, .cls-2 {
        stroke-width: 0px;
      }

      .cls-2 {
        fill: #f6934c;
      }
    </style>
  </defs>
  <g id="Layer_1-2" data-name="Layer 1">
    <g>
      <g>
        <g>
          <rect class="cls-1" x="230.05" y="27.44" width="34.31" height="11.47"/>
          <rect class="cls-1" x="241.42" width="11.49" height="138.04"/>
        </g>
        <g>
          <polygon class="cls-1" points="125.21 77.07 125.21 88.54 227.52 88.54 227.23 77.07 125.21 77.07"/>
          <path class="cls-1" d="m212.66,104.75c-7.61,13.12-21.82,21.96-38.1,21.96-24.3,0-44-19.66-44-43.91s19.7-43.9,44-43.9,44,19.66,44,43.9c0,1.94-.14,3.86-.39,5.73h11.58c.19-1.88.3-3.8.3-5.73,0-30.58-24.85-55.37-55.49-55.37s-55.49,24.79-55.49,55.37,24.85,55.37,55.49,55.37c20.54,0,38.46-11.14,48.05-27.69l-9.95-5.73Z"/>
        </g>
        <path class="cls-1" d="m375.33,82.8c0,30.58-24.85,55.37-55.49,55.37s-55.49-24.79-55.49-55.37,24.85-55.37,55.49-55.37,55.49,24.79,55.49,55.37Zm-55.5-43.9c-24.3,0-44,19.66-44,43.9s19.7,43.9,44,43.9,44-19.66,44-43.9-19.7-43.9-44-43.9Z"/>
        <g>
          <path class="cls-1" d="m438.9,138.17c-30.65,0-55.49-24.79-55.49-55.37s24.85-55.37,55.49-55.37,55.49,24.79,55.49,55.37-24.84,55.37-55.49,55.37Zm44-55.37c0-24.25-19.7-43.9-44-43.9s-44,19.66-44,43.9,19.7,43.9,44,43.9c24.3.01,44-19.65,44-43.9Z"/>
          <rect class="cls-1" x="383.4" y="33.17" width="11.49" height="132.44"/>
        </g>
        <g>
          <path class="cls-1" d="m522.26,82.8c0-30.58,24.85-55.37,55.49-55.37s55.49,24.79,55.49,55.37-24.85,55.37-55.49,55.37-55.49-24.79-55.49-55.37Zm55.49,43.91c24.3,0,44-19.66,44-43.9s-19.7-43.9-44-43.9-44,19.66-44,43.9,19.7,43.9,44,43.9Z"/>
          <rect class="cls-1" x="621.75" y="33.16" width="11.49" height="104.87"/>
        </g>
        <polygon class="cls-2" points="514.11 33.17 530.71 16.6 514.11 .04 514.11 33.17"/>
        <polygon class="cls-1" points="502.62 138.04 514.11 138.04 514.11 33.17 502.62 44.53 502.62 138.04"/>
        <g>
          <path class="cls-1" d="m110.99,82.8c0,30.58-24.85,55.37-55.49,55.37S.01,113.38.01,82.8,24.86,27.43,55.5,27.43s55.49,24.79,55.49,55.37Zm-55.5-43.9c-24.3,0-44,19.66-44,43.9s19.7,43.9,44,43.9,44-19.66,44-43.9-19.7-43.9-44-43.9Z"/>
          <rect class="cls-1" width="11.49" height="138.04"/>
        </g>
        <g>
          <path class="cls-1" d="m442.69,207.45c-3.91,0-7.42-.9-10.53-2.7-3.11-1.8-5.55-4.28-7.33-7.45-1.78-3.16-2.66-6.75-2.66-10.77s.87-7.52,2.62-10.68c1.75-3.16,4.18-5.66,7.28-7.49,3.11-1.83,6.59-2.75,10.44-2.75,3.2,0,6.09.61,8.66,1.82,2.58,1.21,4.69,2.91,6.35,5.1s2.75,4.79,3.29,7.8v12.5c-.53,2.96-1.64,5.54-3.33,7.76-1.69,2.22-3.79,3.92-6.31,5.1-2.52,1.17-5.35,1.76-8.48,1.76Zm-.89,18.61c-4.09,0-7.74-.75-10.97-2.26-3.23-1.51-5.85-3.68-7.86-6.52l2.93-2.84c1.6,2.24,3.76,4.03,6.48,5.36s5.89,1.99,9.51,1.99c5.21,0,9.36-1.42,12.44-4.25,3.08-2.84,4.62-6.65,4.62-11.43v-10.37l1.07-9.57-1.07-9.31v-10.37h4.53v39.62c0,4.02-.9,7.52-2.71,10.5s-4.34,5.3-7.6,6.96c-3.26,1.66-7.05,2.49-11.37,2.49Zm1.6-22.78c3.14,0,5.89-.69,8.26-2.08s4.22-3.34,5.55-5.85c1.33-2.51,2-5.45,2-8.82s-.67-6.2-2-8.69c-1.33-2.48-3.2-4.43-5.6-5.85-2.4-1.42-5.17-2.13-8.31-2.13s-6.04.71-8.53,2.13c-2.49,1.42-4.44,3.37-5.86,5.85-1.42,2.48-2.13,5.35-2.13,8.6s.71,6.15,2.13,8.69c1.42,2.54,3.39,4.54,5.91,5.98,2.52,1.45,5.38,2.17,8.58,2.17Z"/>
          <path class="cls-1" d="m473.16,207.71v-41.22h4.53v41.22h-4.53Zm4.53-24.55l-2.22-.89c0-5.26,1.33-9.35,4-12.28s6.16-4.39,10.48-4.39c2.01,0,3.89.35,5.64,1.06,1.75.71,3.36,1.86,4.84,3.46l-3.02,3.19c-1.13-1.24-2.34-2.13-3.64-2.66-1.3-.53-2.84-.8-4.62-.8-3.38,0-6.13,1.14-8.26,3.41-2.14,2.29-3.2,5.59-3.2,9.9Z"/>
          <path class="cls-1" d="m521.4,208.6c-3.97,0-7.57-.96-10.79-2.88-3.23-1.92-5.79-4.52-7.68-7.8-1.9-3.28-2.84-6.93-2.84-10.95s.95-7.64,2.84-10.86c1.89-3.22,4.46-5.78,7.68-7.67,3.23-1.89,6.83-2.84,10.79-2.84s7.65.95,10.88,2.84c3.23,1.89,5.79,4.45,7.68,7.67,1.89,3.22,2.84,6.84,2.84,10.86s-.95,7.74-2.84,10.99c-1.9,3.25-4.46,5.84-7.68,7.76-3.23,1.92-6.86,2.88-10.88,2.88Zm0-4.26c3.2,0,6.05-.77,8.57-2.3,2.52-1.54,4.5-3.62,5.95-6.25,1.45-2.63,2.18-5.6,2.18-8.91s-.73-6.15-2.18-8.69c-1.45-2.54-3.44-4.56-5.95-6.07-2.52-1.51-5.37-2.26-8.57-2.26s-5.97.75-8.48,2.26c-2.52,1.51-4.52,3.53-6,6.07-1.48,2.54-2.22,5.47-2.22,8.78s.74,6.26,2.22,8.86c1.48,2.6,3.48,4.67,6,6.2,2.51,1.55,5.34,2.31,8.48,2.31Z"/>
          <path class="cls-1" d="m565.99,208.51c-3.32,0-6.28-.75-8.88-2.26-2.61-1.51-4.63-3.62-6.08-6.34-1.45-2.72-2.18-5.85-2.18-9.4v-24.02h4.53v23.84c0,2.78.52,5.22,1.55,7.31,1.04,2.1,2.5,3.74,4.4,4.92,1.89,1.18,4.09,1.77,6.57,1.77,3.85,0,6.91-1.29,9.19-3.86s3.42-5.95,3.42-10.15v-23.84h4.53v24.02c0,3.55-.73,6.68-2.18,9.4-1.45,2.72-3.46,4.83-6.04,6.34-2.57,1.52-5.51,2.27-8.83,2.27Z"/>
          <path class="cls-1" d="m591.84,225.17v-58.68h4.53v10.28l-1.07,10.02,1.07,10.1v28.28h-4.53Zm20.97-16.57c-3.08,0-5.91-.62-8.48-1.86-2.58-1.24-4.72-2.97-6.44-5.19-1.72-2.22-2.84-4.8-3.38-7.76v-13.47c.53-3.01,1.67-5.63,3.42-7.84,1.75-2.22,3.91-3.91,6.48-5.1,2.58-1.18,5.37-1.77,8.4-1.77,3.91,0,7.4.95,10.48,2.84,3.08,1.89,5.51,4.46,7.28,7.71,1.78,3.25,2.66,6.91,2.66,10.99s-.89,7.73-2.66,10.95c-1.78,3.22-4.21,5.78-7.28,7.67-3.08,1.88-6.57,2.83-10.48,2.83Zm-.8-4.26c3.26,0,6.13-.74,8.62-2.22,2.49-1.48,4.43-3.52,5.82-6.12,1.39-2.6,2.09-5.58,2.09-8.95s-.7-6.34-2.09-8.91c-1.39-2.57-3.32-4.59-5.77-6.07-2.46-1.48-5.29-2.22-8.48-2.22s-5.91.74-8.31,2.22-4.28,3.5-5.64,6.07c-1.36,2.57-2.04,5.57-2.04,9s.67,6.34,2,8.91c1.33,2.57,3.2,4.6,5.6,6.07,2.38,1.49,5.12,2.22,8.2,2.22Z"/>
        </g>
      </g>
      <g>
        <path class="cls-1" d="m661.21,4.67h-11.34v28.5h-5.37V4.67h-11.34V.05h28.05v4.62h0Z"/>
        <path class="cls-1" d="m701.5,33.17h-4.92V14l.35-9.13h-.05l-10.09,28.3h-4.46l-10.09-28.3h-.05l.4,9.13v19.17h-4.97V.05h7.98l6.67,19.17,2.31,7.88h.1l2.36-7.88L693.66.05h7.83v33.12h.01Z"/>
      </g>
    </g>
  </g>
</svg>